<svg width="67" height="10" viewBox="0 0 67 10" fill="none" xmlns="http://www.w3.org/2000/svg">
<path d="M8.00266 3.24C8.00266 3.528 7.94666 3.76 7.83466 3.936C7.72266 4.104 7.59866 4.236 7.46266 4.332C7.30266 4.444 7.12266 4.52 6.92266 4.56V4.68C7.14666 4.728 7.34666 4.816 7.52266 4.944C7.67466 5.056 7.81066 5.216 7.93066 5.424C8.05866 5.624 8.12266 5.896 8.12266 6.24V7.02C8.12266 8.42 7.42266 9.12 6.02266 9.12H2.72266C1.32266 9.12 0.622659 8.42 0.622659 7.02V6.42C0.622659 6.22 0.722659 6.12 0.922659 6.12H2.24266C2.44266 6.12 2.54266 6.22 2.54266 6.42V6.78C2.54266 7.22 2.76266 7.44 3.20266 7.44H5.54266C5.98266 7.44 6.20266 7.22 6.20266 6.78V6.24C6.20266 5.8 5.98266 5.58 5.54266 5.58H3.80266C3.60266 5.58 3.50266 5.48 3.50266 5.28V4.2C3.50266 4 3.60266 3.9 3.80266 3.9H5.42266C5.86266 3.9 6.08266 3.68 6.08266 3.24V2.82C6.08266 2.38 5.86266 2.16 5.42266 2.16H3.32266C2.88266 2.16 2.66266 2.38 2.66266 2.82V3.18C2.66266 3.38 2.56266 3.48 2.36266 3.48H1.04266C0.842659 3.48 0.742659 3.38 0.742659 3.18V2.58C0.742659 1.18 1.44266 0.48 2.84266 0.48H5.90266C7.30266 0.48 8.00266 1.18 8.00266 2.58V3.24ZM11.4929 7.26L10.9529 8.7C10.9129 8.788 10.8609 8.86 10.7969 8.916C10.7409 8.972 10.6529 9 10.5329 9H9.03288C8.83288 9 8.77288 8.9 8.85288 8.7L11.7929 0.9C11.8729 0.7 12.0329 0.599999 12.2729 0.599999H14.0129C14.1329 0.599999 14.2209 0.628 14.2769 0.684C14.3409 0.74 14.3929 0.812 14.4329 0.9L17.3729 8.7C17.4529 8.9 17.3929 9 17.1929 9H15.6929C15.5729 9 15.4809 8.972 15.4169 8.916C15.3609 8.86 15.3129 8.788 15.2729 8.7L14.7329 7.26H11.4929ZM14.1329 5.58L13.1729 3H13.0529L12.0929 5.58H14.1329ZM20.2628 3.78H21.8828L23.4428 0.9C23.4908 0.812 23.5508 0.74 23.6228 0.684C23.7028 0.628 23.8028 0.599999 23.9228 0.599999H25.4228C25.5108 0.599999 25.5748 0.628 25.6148 0.684C25.6548 0.74 25.6508 0.812 25.6028 0.9L23.5628 4.56L25.8428 8.7C25.8908 8.788 25.8948 8.86 25.8548 8.916C25.8148 8.972 25.7508 9 25.6628 9H24.1628C24.0428 9 23.9428 8.972 23.8628 8.916C23.7908 8.86 23.7308 8.788 23.6828 8.7L21.9428 5.46H20.2628V8.7C20.2628 8.9 20.1628 9 19.9628 9H18.6428C18.4428 9 18.3428 8.9 18.3428 8.7V0.9C18.3428 0.7 18.4428 0.599999 18.6428 0.599999H19.9628C20.1628 0.599999 20.2628 0.7 20.2628 0.9V3.78ZM28.6538 7.26L28.1138 8.7C28.0738 8.788 28.0218 8.86 27.9578 8.916C27.9018 8.972 27.8138 9 27.6938 9H26.1938C25.9938 9 25.9338 8.9 26.0138 8.7L28.9538 0.9C29.0338 0.7 29.1938 0.599999 29.4338 0.599999H31.1738C31.2938 0.599999 31.3818 0.628 31.4378 0.684C31.5018 0.74 31.5538 0.812 31.5938 0.9L34.5338 8.7C34.6138 8.9 34.5538 9 34.3538 9H32.8538C32.7338 9 32.6418 8.972 32.5778 8.916C32.5218 8.86 32.4738 8.788 32.4338 8.7L31.8938 7.26H28.6538ZM31.2938 5.58L30.3338 3H30.2138L29.2538 5.58H31.2938ZM42.5238 3.24C42.5238 3.528 42.4678 3.76 42.3558 3.936C42.2438 4.104 42.1198 4.236 41.9838 4.332C41.8238 4.444 41.6438 4.52 41.4438 4.56V4.68C41.6678 4.728 41.8678 4.816 42.0438 4.944C42.1958 5.056 42.3318 5.216 42.4518 5.424C42.5798 5.624 42.6438 5.896 42.6438 6.24V7.02C42.6438 8.42 41.9438 9.12 40.5438 9.12H37.2438C35.8438 9.12 35.1438 8.42 35.1438 7.02V6.42C35.1438 6.22 35.2438 6.12 35.4438 6.12H36.7638C36.9638 6.12 37.0638 6.22 37.0638 6.42V6.78C37.0638 7.22 37.2838 7.44 37.7238 7.44H40.0638C40.5038 7.44 40.7238 7.22 40.7238 6.78V6.24C40.7238 5.8 40.5038 5.58 40.0638 5.58H38.3238C38.1238 5.58 38.0238 5.48 38.0238 5.28V4.2C38.0238 4 38.1238 3.9 38.3238 3.9H39.9438C40.3838 3.9 40.6038 3.68 40.6038 3.24V2.82C40.6038 2.38 40.3838 2.16 39.9438 2.16H37.8438C37.4038 2.16 37.1838 2.38 37.1838 2.82V3.18C37.1838 3.38 37.0838 3.48 36.8838 3.48H35.5638C35.3638 3.48 35.2638 3.38 35.2638 3.18V2.58C35.2638 1.18 35.9638 0.48 37.3638 0.48H40.4238C41.8238 0.48 42.5238 1.18 42.5238 2.58V3.24ZM46.014 7.26L45.474 8.7C45.434 8.788 45.382 8.86 45.318 8.916C45.262 8.972 45.174 9 45.054 9H43.554C43.354 9 43.294 8.9 43.374 8.7L46.314 0.9C46.394 0.7 46.554 0.599999 46.794 0.599999H48.534C48.654 0.599999 48.742 0.628 48.798 0.684C48.862 0.74 48.914 0.812 48.954 0.9L51.894 8.7C51.974 8.9 51.914 9 51.714 9H50.214C50.094 9 50.002 8.972 49.938 8.916C49.882 8.86 49.834 8.788 49.794 8.7L49.254 7.26H46.014ZM48.654 5.58L47.694 3H47.574L46.614 5.58H48.654ZM55.4486 8.7C55.4486 8.9 55.3486 9 55.1486 9H53.8286C53.6286 9 53.5286 8.9 53.5286 8.7V2.28H51.1286C50.9286 2.28 50.8286 2.18 50.8286 1.98V0.9C50.8286 0.7 50.9286 0.599999 51.1286 0.599999H57.8486C58.0486 0.599999 58.1486 0.7 58.1486 0.9V1.98C58.1486 2.18 58.0486 2.28 57.8486 2.28H55.4486V8.7ZM64.1772 3.12C65.5772 3.12 66.2772 3.82 66.2772 5.22V6.9C66.2772 8.3 65.5772 9 64.1772 9H59.3772C59.1772 9 59.0772 8.9 59.0772 8.7V0.9C59.0772 0.7 59.1772 0.599999 59.3772 0.599999H60.6972C60.8972 0.599999 60.9972 0.7 60.9972 0.9V3.12H64.1772ZM63.6972 7.32C64.1372 7.32 64.3572 7.1 64.3572 6.66V5.46C64.3572 5.02 64.1372 4.8 63.6972 4.8H60.9972V7.32H63.6972Z" fill="white"/>
</svg>
